<svg xmlns="http://www.w3.org/2000/svg" width="24" height="24" fill="none" viewBox="0 0 24 24"><rect width="20" height="17" x="2" y="4" stroke="#FFF" stroke-width="2" rx="2"/><path stroke="#FFF" stroke-linecap="round" stroke-width="2" d="M7 2V6"/><path stroke="#FFF" stroke-linecap="round" stroke-width="2" d="M17 2V6"/><mask id="path-4-inside-1_705_8554" fill="#fff"><rect width="3" height="3" x="9" y="8" rx="1"/></mask><rect width="3" height="3" x="9" y="8" fill="#FFF" stroke="#FFF" stroke-width="3" mask="url(#path-4-inside-1_705_8554)" rx="1"/><mask id="path-5-inside-2_705_8554" fill="#fff"><rect width="3" height="3" x="13" y="8" rx="1"/></mask><rect width="3" height="3" x="13" y="8" fill="#FFF" stroke="#FFF" stroke-width="3" mask="url(#path-5-inside-2_705_8554)" rx="1"/><mask id="path-6-inside-3_705_8554" fill="#fff"><rect width="3" height="3" x="17" y="8" rx="1"/></mask><rect width="3" height="3" x="17" y="8" fill="#FFF" stroke="#FFF" stroke-width="3" mask="url(#path-6-inside-3_705_8554)" rx="1"/><mask id="path-7-inside-4_705_8554" fill="#fff"><rect width="3" height="3" x="5" y="12" rx="1"/></mask><rect width="3" height="3" x="5" y="12" fill="#FFF" stroke="#FFF" stroke-width="3" mask="url(#path-7-inside-4_705_8554)" rx="1"/><mask id="path-8-inside-5_705_8554" fill="#fff"><rect width="3" height="3" x="9" y="12" rx="1"/></mask><rect width="3" height="3" x="9" y="12" fill="#FFF" stroke="#FFF" stroke-width="3" mask="url(#path-8-inside-5_705_8554)" rx="1"/><mask id="path-9-inside-6_705_8554" fill="#fff"><rect width="3" height="3" x="13" y="12" rx="1"/></mask><rect width="3" height="3" x="13" y="12" fill="#FFF" stroke="#FFF" stroke-width="3" mask="url(#path-9-inside-6_705_8554)" rx="1"/><mask id="path-10-inside-7_705_8554" fill="#fff"><rect width="3" height="3" x="17" y="12" rx="1"/></mask><rect width="3" height="3" x="17" y="12" fill="#FFF" stroke="#FFF" stroke-width="3" mask="url(#path-10-inside-7_705_8554)" rx="1"/><mask id="path-11-inside-8_705_8554" fill="#fff"><rect width="3" height="3" x="5" y="16" rx="1"/></mask><rect width="3" height="3" x="5" y="16" fill="#FFF" stroke="#FFF" stroke-width="3" mask="url(#path-11-inside-8_705_8554)" rx="1"/><mask id="path-12-inside-9_705_8554" fill="#fff"><rect width="3" height="3" x="9" y="16" rx="1"/></mask><rect width="3" height="3" x="9" y="16" fill="#FFF" stroke="#FFF" stroke-width="3" mask="url(#path-12-inside-9_705_8554)" rx="1"/></svg>