<svg xmlns="http://www.w3.org/2000/svg" width="48" height="48" fill="none" viewBox="0 0 48 48"><path fill="#9497B8" fill-rule="evenodd" d="M39 18.9451C38.6717 18.9814 38.338 19 38 19C37.662 19 37.3283 18.9814 37 18.9451V37H11V11H29.0549C29.0186 10.6717 29 10.338 29 10C29 9.66199 29.0186 9.32833 29.0549 9H10C9.44772 9 9 9.44772 9 10V38C9 38.5523 9.44772 39 10 39H38C38.5523 39 39 38.5523 39 38V18.9451Z" clip-rule="evenodd"/><path stroke="#9497B8" stroke-width="2" d="M38 14C40.2091 14 42 12.2091 42 10C42 7.79086 40.2091 6 38 6C35.7909 6 34 7.79086 34 10C34 12.2091 35.7909 14 38 14Z"/><path stroke="#9497B8" stroke-linecap="round" stroke-linejoin="round" stroke-width="2" d="M17 27.8225L20.6304 23.1316L25.5271 26.321L31.5498 19"/></svg>